<?xml version="1.0" encoding="UTF-8"?> <svg xmlns="http://www.w3.org/2000/svg" width="88" height="28" viewBox="0 0 88 28" fill="none"> <path d="M45.2335 5.16978V23.0867H48.1513V15.3056H56.397V23.0867H59.3147V5.16978H56.397V12.6949H48.1513V5.16978H45.2335Z" fill="white"></path> <path d="M63.3899 4.76025C62.4511 4.76025 61.7153 5.45133 61.7153 6.42397C61.7153 7.3966 62.4511 8.08768 63.3899 8.08768C64.3286 8.08768 65.0644 7.3966 65.0644 6.42397C65.0644 5.45133 64.3286 4.76025 63.3899 4.76025ZM62.0198 9.98175V23.0867H64.7599V9.98175H62.0198Z" fill="white"></path> <path d="M73.7635 9.98175C71.6323 9.98175 70.592 10.852 69.9324 11.9526L69.6279 9.98175H67.1922V23.0867H69.9324V16.5086C69.9324 14.4866 70.7189 12.5669 73.1545 12.5669H74.3724V9.98175H73.7635Z" fill="white"></path> <path d="M81.3787 23.2403C85.3367 23.2403 88.0007 20.5527 88.0007 16.5342C88.0007 12.5413 85.3367 9.82818 81.3787 9.82818C77.4207 9.82818 74.7567 12.5413 74.7567 16.5342C74.7567 20.5527 77.4207 23.2403 81.3787 23.2403ZM81.3787 20.8855C79.0699 20.8855 77.573 19.0682 77.573 16.5342C77.573 14.0003 79.0699 12.183 81.3787 12.183C83.6875 12.183 85.2098 14.0003 85.2098 16.5342C85.2098 19.0682 83.6875 20.8855 81.3787 20.8855Z" fill="white"></path> <path fill-rule="evenodd" clip-rule="evenodd" d="M9.43623 28H9.43669H28.8647V0H9.43669H9.43623V0.000687614L0 14L9.43623 27.9993V28ZM26.09 11.4433H21.9419L24.8549 7H22.6527L19.1454 12.3602L15.6498 7H13.4476L16.3606 11.4433H12.2125V13.1595H26.09V11.4433ZM28.8658 28L38.3025 14L28.8658 0V28ZM21.8603 16.4979L24.8083 21H22.606L19.1454 15.7103L15.6848 21H13.4942L16.4422 16.5097H12.2125V14.8052H26.09V16.4979H21.8603Z" fill="white"></path> </svg> 