<?xml version="1.0" encoding="UTF-8"?> <!-- Generator: Adobe Illustrator 25.2.0, SVG Export Plug-In . SVG Version: 6.00 Build 0) --> <svg xmlns="http://www.w3.org/2000/svg" xmlns:xlink="http://www.w3.org/1999/xlink" id="Layer_1" x="0px" y="0px" viewBox="0 0 131 34" style="enable-background:new 0 0 131 34;" xml:space="preserve"> <style type="text/css"> .st0{fill-rule:evenodd;clip-rule:evenodd;fill:#FFFFFF;} .st1{fill:#FFFFFF;} </style> <path class="st0" d="M17,34c9.4,0,17-7.6,17-17c0-9.4-7.6-17-17-17C7.6,0,0,7.6,0,17C0,26.4,7.6,34,17,34z M11.4,11.7v10.8H7.8V11.7 H11.4z M11.7,26.3h10.7v-3.7H11.7V26.3z M22.6,22.3V11.6h3.7v10.8H22.6z M22.3,7.7H11.7v3.6h10.7V7.7z"></path> <path class="st1" d="M55.6,17.1c0,4.6-3.6,7.8-8,7.8s-8.2-3.2-8.2-7.8c0-4.6,3.6-7.8,8.2-7.8C51.9,9.3,55.6,12.4,55.6,17.1z M51.8,17.1c0-2.8-2.2-4.4-4.2-4.4c-2.2,0-4.3,1.7-4.3,4.4c0,2.8,2.2,4.4,4.3,4.4C49.6,21.5,51.8,19.8,51.8,17.1z"></path> <path class="st1" d="M73.6,24.6h-5.2l-5.4-5.8h-1.1v5.8h-4V3.1h4v11.8h1.1l5-5.2h5l-7.3,7.1L73.6,24.6z"></path> <path class="st1" d="M84.2,18.5l3.6,0.9c-0.8,3.4-4,5.6-7.5,5.6c-4.4,0-7.9-3.2-7.9-7.9c0-4.6,3.6-7.9,7.9-7.9 c3.5,0,6.5,2.2,7.5,5.6L84,15.8c-0.6-2-1.9-2.9-3.6-2.9c-2.5,0-4.2,1.8-4.2,4.3c0,2.6,1.7,4.3,4.2,4.3 C82.2,21.4,83.5,20.5,84.2,18.5z"></path> <path class="st1" d="M105.3,17.1c0,4.6-3.6,7.8-8,7.8c-4.4,0-8.2-3.2-8.2-7.8c0-4.6,3.6-7.8,8.2-7.8 C101.5,9.3,105.3,12.4,105.3,17.1z M101.4,17.1c0-2.8-2.2-4.4-4.2-4.4c-2.2,0-4.3,1.7-4.3,4.4c0,2.8,2.2,4.4,4.3,4.4 C99.3,21.5,101.4,19.8,101.4,17.1z"></path> <path class="st1" d="M112.2,5.1c0,1.4-1,2.3-2.4,2.3s-2.4-1-2.4-2.3c0-1.2,1-2.4,2.4-2.4C111.2,2.8,112.2,3.9,112.2,5.1z M111.7,24.6h-3.9v-15h4v15H111.7z"></path> <path class="st1" d="M130.2,15.4v9.1h-4v-8.3c0-2-1.2-3.5-3.1-3.5c-2.3,0-3.7,1.5-3.7,5.1v6.6h-4v-15h4v1.4c1.1-1.1,2.7-1.8,4.6-1.8 C127.8,9.2,130.2,11.8,130.2,15.4z"></path> </svg> 