<svg width="3598" height="402" viewBox="0 0 3598 402" fill="none" xmlns="http://www.w3.org/2000/svg">
<path d="M520 247.306C521.113 298.504 561.552 334.862 624.251 334.862C680.272 334.862 720.34 301.843 720.34 255.839C720.711 204.641 678.788 190.914 635.752 183.123C594.942 176.074 568.23 170.509 568.23 143.797C568.23 119.311 588.635 106.697 617.944 106.697C649.108 106.697 670.997 124.505 673.965 150.846H715.888C713.662 104.1 674.707 70.71 617.944 70.71C563.407 70.71 525.565 101.874 525.565 146.765C525.565 198.334 566.375 212.061 609.411 219.481C650.592 226.901 677.675 232.837 677.675 260.291C677.675 285.148 655.415 298.875 624.622 298.875C588.264 298.875 564.149 278.47 561.923 248.048L520 247.306Z" fill="#ffffff"/>
<path d="M762.35 281.067C762.35 315.57 777.932 332.636 814.29 332.636H852.874V297.391H822.452C807.983 297.391 802.789 291.826 802.789 276.986V177.929H848.422V142.684H802.789V89.631H762.35V142.684H729.331V177.929H762.35V281.067Z" fill="#ffffff"/>
<path d="M1016.2 142.684L1011.37 170.509C999.129 153.072 979.095 140.458 949.415 140.458C897.846 140.458 859.633 179.042 859.633 237.66C859.633 298.504 897.846 334.862 949.415 334.862C979.095 334.862 999.129 320.764 1011.37 303.698L1015.82 332.636H1051.07V142.684H1016.2ZM956.093 301.101C922.703 301.101 900.814 275.131 900.814 237.66C900.814 200.56 922.703 174.59 956.093 174.59C989.483 174.59 1011.37 200.931 1011.37 238.402C1011.37 275.131 989.483 301.101 956.093 301.101Z" fill="#ffffff"/>
<path d="M1261.63 264.372H1220.82C1215.99 286.632 1198.93 300.73 1174.07 300.73C1141.79 300.73 1120.65 274.76 1120.65 237.289C1120.65 200.189 1141.79 174.59 1174.07 174.59C1198.19 174.59 1215.25 188.688 1220.45 210.206H1261.63C1254.21 167.541 1223.04 140.458 1175.18 140.458C1117.31 140.458 1079.47 179.042 1079.47 237.289C1079.47 295.907 1116.94 334.862 1174.07 334.862C1222.67 334.862 1254.21 307.779 1261.63 264.372Z" fill="#ffffff"/>
<path d="M1290.04 72.936V332.636H1330.11V284.035L1363.87 248.419L1420.26 332.636H1467.75L1392.44 219.11L1463.3 142.684H1416.92L1330.11 235.434V72.936H1290.04Z" fill="#ffffff"/>
<path d="M1471.68 269.937C1472.79 311.118 1507.29 334.862 1557.75 334.862C1603.38 334.862 1637.51 311.86 1637.51 275.502C1637.51 233.208 1602.27 223.562 1559.6 218.739C1532.52 215.4 1514.34 213.916 1514.34 196.108C1514.34 180.897 1529.92 171.251 1553.3 171.251C1576.67 171.251 1593.36 183.865 1595.22 200.931H1634.17C1631.58 161.976 1598.93 140.458 1552.55 140.458C1507.66 140.087 1475.39 163.46 1475.39 199.447C1475.39 238.773 1509.52 247.677 1552.18 252.871C1581.12 256.581 1598.19 258.436 1598.19 278.47C1598.19 294.052 1581.49 303.698 1557.38 303.698C1529.92 303.698 1511.74 289.6 1510.26 269.937H1471.68Z" fill="#ffffff"/>
<path d="M1761.6 72.936V332.636H1804.26V222.82H1905.92V186.091H1804.26V110.778H1927.43V72.936H1761.6Z" fill="#ffffff"/>
<path d="M2028.36 334.862C2086.24 334.862 2125.2 295.907 2125.2 237.66C2125.2 179.784 2086.24 140.458 2028.36 140.458C1970.49 140.458 1931.53 179.784 1931.53 237.66C1931.53 295.907 1970.49 334.862 2028.36 334.862ZM2028.36 300.73C1994.6 300.73 1972.71 274.389 1972.71 237.66C1972.71 200.931 1994.6 174.59 2028.36 174.59C2062.13 174.59 2084.39 200.931 2084.39 237.66C2084.39 274.389 2062.13 300.73 2028.36 300.73Z" fill="#ffffff"/>
<path d="M2283.93 142.684V236.918C2283.93 276.244 2265.38 299.988 2234.95 299.988C2205.64 299.988 2190.8 280.325 2190.8 243.225V142.684H2150.74V247.306C2150.74 312.973 2185.24 334.862 2225.68 334.862C2254.99 334.862 2272.42 322.99 2284.3 308.521L2288.75 332.636H2323.99V142.684H2283.93Z" fill="#ffffff"/>
<path d="M2459.94 140.458C2429.15 140.458 2410.97 152.701 2399.09 167.541L2394.64 142.684H2359.77V332.636H2399.84V236.918C2399.84 198.334 2418.76 174.961 2450.66 174.961C2480.71 174.961 2495.93 194.253 2495.93 230.24V332.636H2536.36V228.014C2536.36 162.347 2500.75 140.458 2459.94 140.458Z" fill="#ffffff"/>
<path d="M2713.41 72.936V169.025C2701.17 152.33 2680.76 140.458 2651.83 140.458C2600.26 140.458 2562.04 179.042 2562.04 237.66C2562.04 298.504 2600.26 334.862 2651.83 334.862C2681.88 334.862 2701.54 320.764 2713.78 304.069L2718.61 332.636H2753.48V72.936H2713.41ZM2658.5 301.101C2625.11 301.101 2603.23 275.131 2603.23 237.66C2603.23 200.56 2625.11 174.59 2658.5 174.59C2691.89 174.59 2713.78 200.56 2713.78 238.402C2713.78 275.131 2691.89 301.101 2658.5 301.101Z" fill="#ffffff"/>
<path d="M2938.44 142.684L2933.62 170.509C2921.37 153.072 2901.34 140.458 2871.66 140.458C2820.09 140.458 2781.88 179.042 2781.88 237.66C2781.88 298.504 2820.09 334.862 2871.66 334.862C2901.34 334.862 2921.37 320.764 2933.62 303.698L2938.07 332.636H2973.31V142.684H2938.44ZM2878.34 301.101C2844.95 301.101 2823.06 275.131 2823.06 237.66C2823.06 200.56 2844.95 174.59 2878.34 174.59C2911.73 174.59 2933.62 200.931 2933.62 238.402C2933.62 275.131 2911.73 301.101 2878.34 301.101Z" fill="#ffffff"/>
<path d="M3022.09 281.067C3022.09 315.57 3037.67 332.636 3074.03 332.636H3112.61V297.391H3082.19C3067.72 297.391 3062.53 291.826 3062.53 276.986V177.929H3108.16V142.684H3062.53V89.631H3022.09V142.684H2989.07V177.929H3022.09V281.067Z" fill="#ffffff"/>
<path d="M3150.44 67C3136.71 67 3125.95 77.017 3125.95 91.115C3125.95 105.213 3136.71 115.23 3150.44 115.23C3164.17 115.23 3174.93 105.213 3174.93 91.115C3174.93 77.017 3164.17 67 3150.44 67ZM3130.41 142.684V332.636H3170.47V142.684H3130.41Z" fill="#ffffff"/>
<path d="M3295.82 334.862C3353.7 334.862 3392.65 295.907 3392.65 237.66C3392.65 179.784 3353.7 140.458 3295.82 140.458C3237.95 140.458 3198.99 179.784 3198.99 237.66C3198.99 295.907 3237.95 334.862 3295.82 334.862ZM3295.82 300.73C3262.06 300.73 3240.17 274.389 3240.17 237.66C3240.17 200.931 3262.06 174.59 3295.82 174.59C3329.58 174.59 3351.84 200.931 3351.84 237.66C3351.84 274.389 3329.58 300.73 3295.82 300.73Z" fill="#ffffff"/>
<path d="M3521.33 140.458C3490.54 140.458 3472.36 152.701 3460.49 167.541L3456.04 142.684H3421.16V332.636H3461.23V236.918C3461.23 198.334 3480.15 174.961 3512.06 174.961C3542.11 174.961 3557.32 194.253 3557.32 230.24V332.636H3597.76V228.014C3597.76 162.347 3562.14 140.458 3521.33 140.458Z" fill="#ffffff"/>
<path fill-rule="evenodd" clip-rule="evenodd" d="M201 402C312.009 402 402 312.009 402 201C402 89.9908 312.009 0 201 0C89.9908 0 0 89.9908 0 201C0 312.009 89.9908 402 201 402ZM293.26 189.913V167.48H238.183L276.861 109H247.62L201.053 179.548L154.64 109H125.399L164.077 167.48H109V190.068H293.26V189.913ZM276.242 293.26L237.1 234.006H293.26V211.728H109V234.161H165.16L126.018 293.26H155.104L201.053 223.64L247.002 293.26H276.242Z" fill="#ffffff"/>
</svg>
